<svg xmlns="http://www.w3.org/2000/svg" width="55" height="55" viewBox="0 0 55 55">
  <g id="yellow-icon-01" transform="translate(-914 -1845)">
    <g id="Icon" transform="translate(914 1845)" opacity="0.1">
      <circle id="Oval" cx="27.5" cy="27.5" r="27.5" fill="#ffd200"/>
    </g>
    <g id="Group_9049" data-name="Group 9049" transform="translate(568 758)">
      <path id="Path_2" data-name="Path 2" d="M25.146,20.545a6.2,6.2,0,0,0-.2,4.818H21.076a.37.37,0,0,1-.021-.109,5.119,5.119,0,0,1,.228-2.551c.3-.846.76-1.714,1.03-2.648a5.351,5.351,0,0,0-.26-2.832,7.554,7.554,0,0,1-.672,2.691c-.369.846-.923,1.584-1.388,2.463a6.422,6.422,0,0,0-.7,2.951v.033H12.927a15.389,15.389,0,0,1,2.962-7.129l-3.2.272a1.885,1.885,0,0,1-1.411-.488,1.857,1.857,0,0,1-.6-1.367v-.931a2.916,2.916,0,0,1,2.1-2.788L18.231,11.2V8.814a.827.827,0,0,1,.444-.728.814.814,0,0,1,.858.076l2.42,1.812a8.475,8.475,0,0,1,3.192,10.57Z" transform="translate(354.512 1093.977)" fill="#ffd200"/>
      <g id="Group_3" data-name="Group 3" transform="translate(363 1120.968)">
        <path id="Path_4" data-name="Path 4" d="M27.214,24.006H11.48a.814.814,0,0,1-.814-.814V21.837a2.136,2.136,0,0,1,1.9-2.17H26.129a2.137,2.137,0,0,1,1.9,2.17v1.356A.814.814,0,0,1,27.214,24.006Z" transform="translate(-8.496 -19.667)" fill="#ffe777"/>
        <path id="Path_5" data-name="Path 5" d="M30.222,25.674H10.147a.814.814,0,0,1-.814-.814V23.232a1.9,1.9,0,0,1,1.9-1.9h17.9a1.9,1.9,0,0,1,1.9,1.9V24.86A.814.814,0,0,1,30.222,25.674Z" transform="translate(-9.333 -18.621)" fill="#ffe777"/>
      </g>
    </g>
  </g>
</svg>
