<svg id="bold" enable-background="new 0 0 32 32" height="512" viewBox="0 0 32 32" width="512" xmlns="http://www.w3.org/2000/svg"><path d="m26 32h-20c-3.314 0-6-2.686-6-6v-20c0-3.314 2.686-6 6-6h20c3.314 0 6 2.686 6 6v20c0 3.314-2.686 6-6 6z" fill="#e3f8fa"/><path d="m16.167 24h-7c-.644 0-1.167-.523-1.167-1.167v-5c0-.643.523-1.167 1.167-1.167h1.5v-1.5c0-.199.118-.378.299-.458.182-.079.394-.044.54.09l2.023 1.868h2.638c.643 0 1.167.523 1.167 1.167v5c-.001.644-.524 1.167-1.167 1.167z" fill="#8ce1eb"/><path d="m20.833 17.333c-.123 0-.245-.046-.339-.132l-2.023-1.868h-2.638c-.643 0-1.167-.523-1.167-1.167v-5c.001-.643.524-1.166 1.167-1.166h7c.644 0 1.167.523 1.167 1.167v5c0 .643-.523 1.167-1.167 1.167h-1.5v1.5c0 .199-.118.378-.299.458-.065.028-.133.041-.201.041z" fill="#8ce1eb"/><g fill="#26c6da"><path d="m21.333 20.667c-.735 0-1.333-.598-1.333-1.333s.598-1.334 1.333-1.334 1.333.598 1.333 1.333-.598 1.334-1.333 1.334z"/><path d="m10.667 10.667c-.735 0-1.333-.598-1.333-1.333-.001-.736.598-1.334 1.333-1.334s1.333.598 1.333 1.333c0 .736-.598 1.334-1.333 1.334z"/><path d="m23.5 24h-4.333c-.276 0-.5-.224-.5-.5v-.333c0-1.011.822-1.833 1.833-1.833h1.667c1.011 0 1.833.822 1.833 1.833v.333c0 .276-.224.5-.5.5z"/><path d="m12.833 14h-4.333c-.276 0-.5-.224-.5-.5v-.333c0-1.011.822-1.833 1.833-1.833h1.667c1.011 0 1.833.822 1.833 1.833v.333c0 .276-.224.5-.5.5z"/></g></svg>