<svg xmlns="http://www.w3.org/2000/svg" width="55" height="55" viewBox="0 0 55 55">
  <g id="icon-3" transform="translate(-1068 -1033)">
    <g id="Icon" transform="translate(1068 1033)">
      <circle id="Oval" cx="27.5" cy="27.5" r="27.5" fill="#fff"/>
    </g>
    <g id="Group_8" data-name="Group 8" transform="translate(585 -54)">
      <g id="Group_5" data-name="Group 5" transform="translate(497.554 1106.319)">
        <path id="Path_12" data-name="Path 12" d="M28.053,15.766,26.469,17.35A8.674,8.674,0,1,1,23.018,13.9L24.6,12.316a10.855,10.855,0,1,0,3.451,3.451Z" transform="translate(-8 -10.667)" fill="#d9a4fc"/>
        <path id="Path_13" data-name="Path 13" d="M23.788,17.1,22.1,18.794a4.433,4.433,0,0,1,.174,1.258,4.883,4.883,0,1,1-4.883-4.883,4.36,4.36,0,0,1,1.258.174l1.693-1.693A6.909,6.909,0,0,0,17.387,13a7.053,7.053,0,1,0,7.053,7.053,6.909,6.909,0,0,0-.651-2.951Z" transform="translate(-6.535 -9.203)" fill="#d9a4fc"/>
        <path id="Path_14" data-name="Path 14" d="M15.922,21.844a3.255,3.255,0,1,1,3.255-3.255A3.259,3.259,0,0,1,15.922,21.844Zm0-4.339a1.085,1.085,0,1,0,1.086,1.084A1.086,1.086,0,0,0,15.922,17.5Z" transform="translate(-5.071 -7.738)" fill="#d9a4fc"/>
      </g>
      <path id="Path_15" data-name="Path 15" d="M14.981,21.6A.813.813,0,0,1,14.4,20.21l8.138-8.138a.814.814,0,0,1,1.151,1.151l-8.138,8.138a.8.8,0,0,1-.575.238Z" transform="translate(493.424 1096.384)" fill="#be63f9"/>
      <path id="Path_16" data-name="Path 16" d="M22.86,15.6H20.147a.814.814,0,0,1-.814-.814V12.069a.823.823,0,0,1,.238-.576l3.255-3.255a.815.815,0,0,1,1.39.576v1.9h1.9a.815.815,0,0,1,.576,1.39l-3.255,3.255A.82.82,0,0,1,22.86,15.6Z" transform="translate(496.667 1093.978)" fill="#be63f9"/>
    </g>
  </g>
</svg>
